HIERARCHY
ROOT RootJoint
{
    OFFSET   0.000000   0.000000   0.000000
    CHANNELS 6 Xposition Yposition Zposition Xrotation Yrotation Zrotation
    JOINT pelvis_lowerback
    {
        OFFSET   0.000000   0.093605   0.000000
        CHANNELS 3 Xrotation Yrotation Zrotation
        JOINT lowerback_torso
        {
            OFFSET   0.000000   0.100000   0.000000
            CHANNELS 3 Xrotation Yrotation Zrotation
            JOINT torso_head
            {
                OFFSET   0.000000   0.282350   0.000000
                CHANNELS 3 Xrotation Yrotation Zrotation
                End Site
                {
                    OFFSET   0.000000   0.192650   0.000000
                }
            }
            JOINT rTorso_Clavicle
            {
                OFFSET  -0.001000   0.157500   0.000000
                CHANNELS 3 Xrotation Yrotation Zrotation
                JOINT rShoulder
                {
                    OFFSET  -0.117647   0.000000   0.000000
                    CHANNELS 3 Xrotation Yrotation Zrotation
                    JOINT rElbow
                    {
                        OFFSET  -0.245000   0.000000   0.000000
                        CHANNELS 3 Xrotation Yrotation Zrotation
                        JOINT rWrist
                        {
                            OFFSET  -0.240000   0.000000   0.000000
                            CHANNELS 3 Xrotation Yrotation Zrotation
                            End Site
                            {
                                OFFSET  -0.116353  -0.002500   0.000000
                            }
                        }
                    }
                }
            }
            JOINT lTorso_Clavicle
            {
                OFFSET   0.001000   0.157500   0.000000
                CHANNELS 3 Xrotation Yrotation Zrotation
                JOINT lShoulder
                {
                    OFFSET   0.117647   0.000000   0.000000
                    CHANNELS 3 Xrotation Yrotation Zrotation
                    JOINT lElbow
                    {
                        OFFSET   0.245000   0.000000   0.000000
                        CHANNELS 3 Xrotation Yrotation Zrotation
                        JOINT lWrist
                        {
                            OFFSET   0.240000   0.000000   0.000000
                            CHANNELS 3 Xrotation Yrotation Zrotation
                            End Site
                            {
                                OFFSET   0.116353  -0.002500   0.000000
                            }
                        }
                    }
                }
            }
        }
    }
    JOINT rHip
    {
        OFFSET  -0.100000  -0.051395   0.000000
        CHANNELS 3 Xrotation Yrotation Zrotation
        JOINT rKnee
        {
            OFFSET   0.000000  -0.410000   0.000000
            CHANNELS 3 Xrotation Yrotation Zrotation
            JOINT rAnkle
            {
                OFFSET   0.000000  -0.390000   0.000000
                CHANNELS 3 Xrotation Yrotation Zrotation
                JOINT rToeJoint
                {
                    OFFSET   0.000000  -0.050000   0.130000
                    CHANNELS 3 Xrotation Yrotation Zrotation
                    End Site
                    {
                        OFFSET  -0.010000   0.002000   0.060000
                    }
                }
            }
        }
    }
    JOINT lHip
    {
        OFFSET   0.100000  -0.051395   0.000000
        CHANNELS 3 Xrotation Yrotation Zrotation
        JOINT lKnee
        {
            OFFSET   0.000000  -0.410000   0.000000
            CHANNELS 3 Xrotation Yrotation Zrotation
            JOINT lAnkle
            {
                OFFSET   0.000000  -0.390000   0.000000
                CHANNELS 3 Xrotation Yrotation Zrotation
                JOINT lToeJoint
                {
                    OFFSET   0.000000  -0.050000   0.130000
                    CHANNELS 3 Xrotation Yrotation Zrotation
                    End Site
                    {
                        OFFSET   0.010000   0.002000   0.060000
                    }
                }
            }
        }
    }
}
MOTION
Frames: 12
Frame Time:   0.008333
 -2.376719   0.925631   3.975860   0.000000   0.000000   0.000000   0.000000   0.000000   0.000000   0.000000   0.000000   0.000000   0.000000   0.000000   0.000000   0.000000   0.000000   0.000000   0.000000   0.000000   0.000000   0.000000   0.000000   0.000000   0.000000   0.000000   0.000000   0.000000   0.000000   0.000000   0.000000   0.000000   0.000000   0.000000   0.000000   0.000000   0.000000   0.000000   0.000000   0.000000   0.000000   0.000000   0.000000   0.000000   0.000000   0.000000   0.000000   0.000000   0.000000   0.000000   0.000000   0.000000   0.000000   0.000000   0.000000   0.000000   0.000000   0.000000   0.000000   0.000000   0.000000   0.000000   0.000000
 -2.376895   0.926509   3.975362   0.397719   0.199547  -0.004848  -0.627497   0.101305  -0.116547   0.351544  -0.283579   0.093586  -0.188333   0.059500   0.093871   0.334068  -0.320177   0.786585   0.912390   0.204296   1.855595   0.015523   0.677122  -0.008144   0.628638  -0.397732  -3.044516   0.445108  -0.001391  -1.055479   1.505003  -0.023596  -1.563305   0.013216  -0.569768   0.010366   0.625937   0.303249   3.016061  -0.775232   0.242050  -0.071004   0.842930   0.000573   0.003243  -0.721170  -0.037112  -0.051999  -0.117622  -0.000127  -0.000415  -0.787459  -0.374536   0.153044   0.942915  -0.001259  -0.001425  -1.057983   0.079710  -0.082992   0.318786  -0.000186  -0.000268
 -2.377191   0.927942   3.974795   0.741158   0.474727  -0.009324  -1.184567   0.164674  -0.255123   0.723455  -0.612689   0.172971  -0.367453   0.117886   0.192414   0.663847  -0.586689   2.392574   1.794937   0.465344   4.375899   0.035989   1.333521  -0.014376   1.285718  -0.648373  -5.289052   0.877530  -0.107934  -2.931762   2.977454  -0.159304  -3.811543   0.031240  -1.128708   0.018503   1.301121   0.482309   5.245057  -1.529935   0.490239  -0.212067   1.698461   0.001640   0.006462  -1.396088  -0.068500  -0.100792  -0.266103  -0.000342  -0.000970  -1.503648  -0.741802   0.414116   1.901336  -0.003287  -0.001819  -2.049683   0.155633  -0.159430   0.555923  -0.000543  -0.000247
 -2.377549   0.929440   3.974238   1.059605   0.772139  -0.011412  -1.689861   0.197136  -0.404286   1.083689  -0.953819   0.236016  -0.534242   0.172684   0.283578   0.978317  -0.786234   4.501072   2.624328   0.786287   7.268211   0.055937   1.955878  -0.018605   1.921429  -0.810891  -6.546601   1.271237  -0.298205  -5.286707   4.408706  -0.416642  -6.514196   0.049554  -1.667559   0.024517   1.957404   0.542914   6.502470  -2.266996   0.728686  -0.416464   2.496651   0.002909   0.008810  -2.026907  -0.097336  -0.146877  -0.412179  -0.000580  -0.001421  -2.145576  -1.086451   0.755780   2.806714  -0.005494  -0.001638  -2.975831   0.229810  -0.228872   0.762959  -0.000953  -0.000143
 -2.377934   0.930624   3.973740   1.364455   1.063406  -0.011127  -2.154245   0.208789  -0.560300   1.422367  -1.294544   0.282997  -0.689836   0.223796   0.368636   1.275848  -0.929432   6.913980   3.378273   1.155471  10.291777   0.072758   2.545945  -0.021116   2.538712  -0.889567  -7.024980   1.620918  -0.547391  -7.933081   5.747725  -0.781176  -9.415980   0.065721  -2.186912   0.028651   2.599077   0.481629   6.976985  -2.988997   0.956579  -0.673661   3.231206   0.004168   0.010229  -2.617174  -0.124263  -0.190377  -0.555852  -0.000821  -0.001750  -2.719142  -1.410954   1.159333   3.655885  -0.007588  -0.001272  -3.841230   0.301680  -0.291814   0.943372  -0.001333  -0.000043
 -2.378336   0.931210   3.973338   1.659325   1.333684  -0.008326  -2.585810   0.206225  -0.723323   1.735939  -1.628612   0.310863  -0.834045   0.271337   0.449606   1.555037  -1.032826   9.469806   4.059189   1.558942  13.330351   0.085417   3.103456  -0.022258   3.137602  -0.899649  -6.981530   1.924504  -0.831026 -10.725407   6.971604  -1.228168 -12.349889   0.078535  -2.685431   0.031197   3.225329   0.315574   6.904234  -3.693602   1.174489  -0.972290   3.906027   0.005281   0.010861  -3.169449  -0.149527  -0.231394  -0.695494  -0.001046  -0.001957  -3.228058  -1.717549   1.610553   4.453615  -0.009436  -0.000905  -4.649705   0.370755  -0.348846   1.101539  -0.001648   0.000025
 -2.378746   0.930996   3.973054   1.944769   1.575411  -0.003706  -2.990783   0.193493  -0.892984   2.023542  -1.952943   0.320761  -0.967045   0.315514   0.525789   1.816674  -1.111977  12.058558   4.671436   1.981322  16.309515   0.093760   3.627734  -0.022325   3.715969  -0.862050  -6.610945   2.183653  -1.128539 -13.550497   8.084320  -1.734820 -15.235392   0.087640  -3.160930   0.032489   3.831706   0.073097   6.489621  -4.377459   1.383134  -1.301531   4.526701   0.006185   0.010892  -3.685950  -0.173236  -0.270009  -0.829167  -0.001239  -0.002054  -3.675693  -2.007669   2.097872   5.204976  -0.010974  -0.000613  -5.404739   0.436773  -0.400518   1.241602  -0.001887   0.000057
 -2.379025   0.929268   3.972311   2.086338   1.638235  -0.171163  -3.162400   0.221586  -0.770023   2.374792  -2.182921   0.312251  -1.241914   0.179380   0.558748   2.021650  -0.829953  14.151578   5.208492   2.221441  18.684661   0.105642   4.399094  -0.025331   4.203174  -0.935768  -5.052316   2.401431  -1.452929 -15.735576   9.016353  -2.458584 -17.925075   0.096902  -3.764043   0.035755   4.316109  -0.166233   4.928750  -5.213106   1.419871  -1.399108   5.987319   0.008777   0.009475  -4.334431  -0.107090  -0.087052  -0.910936  -0.001053  -0.001760  -3.902410  -1.979473   2.734718   5.499395  -0.009987  -0.000052  -5.805763   0.454648  -0.386242   1.399080  -0.002186   0.000232
 -2.379200   0.926256   3.971431   2.199070   1.721279  -0.358799  -3.278439   0.227226  -0.611654   2.730579  -2.399861   0.325414  -1.492972   0.043505   0.596229   2.165665  -0.474735  15.855407   5.683443   2.518667  20.715833   0.109665   5.144405  -0.027364   4.688671  -0.886390  -3.716944   2.557118  -1.837806 -17.568999   9.840082  -3.225215 -20.280497   0.100178  -4.354851   0.037828   4.792279  -0.551319   3.512423  -5.983388   1.436232  -1.451641   7.458254   0.010515   0.008289  -4.931522  -0.048311   0.084955  -0.966082  -0.000876  -0.001483  -4.150038  -1.949339   3.335405   5.711423  -0.008753   0.000317  -6.179573   0.472176  -0.372308   1.565267  -0.002381   0.000423
 -2.379303   0.922112   3.970541   2.304234   1.810588  -0.542146  -3.370386   0.232917  -0.449273   3.065444  -2.600266   0.346671  -1.721284  -0.084120   0.635037   2.265970  -0.097877  17.278192   6.106079   2.837591  22.486755   0.108468   5.853420  -0.028332   5.162657  -0.768588  -2.691078   2.665921  -2.240032 -19.132234  10.571790  -3.992140 -22.359487   0.099096  -4.918375   0.038510   5.250543  -0.991722   2.382094  -6.676479   1.451153  -1.485405   8.850472   0.011406   0.007329  -5.487172   0.005106   0.246201  -1.009640  -0.000722  -0.001246  -4.429097  -1.923308   3.878798   5.881344  -0.007536   0.000543  -6.529168   0.488279  -0.359271   1.719549  -0.002420   0.000565
 -2.379329   0.920981   3.970013   2.334647   1.930735  -0.151335  -3.438055   0.251232  -0.761349   3.410442  -2.784720   0.184881  -1.930027  -0.203908   0.657519   2.334778   0.286701  18.788317   6.480746   3.172940  24.180330   0.105801   6.518722  -0.028348   5.618585  -0.649583  -1.908456   2.739850  -2.639654 -20.644477  11.224305  -4.737729 -24.234723   0.096052  -5.439491   0.037812   5.684434  -1.368163   1.563411  -7.172078   1.485572  -2.009872  10.140658   0.010926   0.006397  -5.995309   0.049987   0.393882  -0.970893  -0.000581  -0.000954  -4.922332  -1.776115   3.487007   6.561402  -0.005990   0.002091  -6.214581   0.593822  -0.560593   1.921802  -0.001613   0.001109
 -2.379778   0.920428   3.969813   2.378475   1.938826   0.002797  -3.536968   0.311721  -0.813683   3.708646  -2.921044   0.078445  -2.122603  -0.314122   0.666222   2.386067   0.653559  20.061124   6.819932   3.502346  25.711336   0.100848   7.147652  -0.027493   6.056723  -0.480904  -1.147473   2.809748  -2.996006 -22.003661  11.813116  -5.450540 -25.994150   0.091214  -5.931521   0.036294   6.094708  -1.768859   0.751192  -7.635491   1.514558  -2.151714  11.364454   0.008844   0.004920  -6.472189   0.092952   0.533534  -0.958602  -0.000480  -0.000759  -5.264673  -1.699726   3.357990   7.081463  -0.004887   0.002141  -6.245584   0.627250  -0.616144   2.104315  -0.001251   0.001090
